Coordinates
version=1
nRows=11
nColumns=46
inDegrees=yes

Units are S.I. units (second, meters, Newtons, ...)
Angles are in degrees.

endheader
time	pelvis_tilt	pelvis_list	pelvis_rotation	pelvis_tx	pelvis_ty	pelvis_tz	bb_angle	bb_tx	bb_ty	bb_tz	hip_flexion_r	hip_adduction_r	hip_rotation_r	knee_angle_r	knee_angle_r_beta	ankle_angle_r	subtalar_angle_r	mtp_angle_r	crank_angle_r	hip_flexion_l	hip_adduction_l	hip_rotation_l	knee_angle_l	knee_angle_l_beta	ankle_angle_l	subtalar_angle_l	mtp_angle_l	crank_angle_l	lumbar_extension	lumbar_bending	lumbar_rotation	arm_flex_r	arm_add_r	arm_rot_r	elbow_flex_r	pro_sup_r	wrist_flex_r	wrist_dev_r	arm_flex_l	arm_add_l	arm_rot_l	elbow_flex_l	pro_sup_l	wrist_flex_l	wrist_dev_l
      0.00500000	    -26.63471849	     -2.97585046	      3.02704180	      0.14717909	      1.03553868	     -0.23835446	      0.00000000	      0.50000000	      0.00000000	      0.25000000	     62.72153222	     -4.50601162	     -1.36321238	     82.17777113	      1.43427268	     19.46056404	     -5.05595650	      0.00000000	      0.00000000	     84.78344099	     -5.61757825	      0.87460415	     64.19803314	      1.12046705	     -2.51927889	     -2.84176859	      0.00000000	      0.00000000	    -44.50243610	      2.36253691	     -1.76173500	     89.29087411	     -7.96202670	     34.69268511	     34.99786206	     31.10654269	      0.00000000	      0.00000000	     88.55395476	    -14.65342342	     35.89902117	     43.88829437	     32.84394679	      0.00000000	      0.00000000
      0.01000000	    -26.54902570	     -2.93171015	      3.03082290	      0.14725436	      1.03572081	     -0.23836119	      0.00000000	      0.50000000	      0.00000000	      0.25000000	     62.62377240	     -4.53359986	     -1.32311377	     82.18835170	      1.43445734	     19.57737405	     -4.92669852	      0.00000000	      0.00000000	     84.66056690	     -5.61372816	      0.81432640	     64.17336571	      1.12003652	     -2.49878305	     -2.89146453	      0.00000000	      0.00000000	    -44.63577567	      2.32460641	     -1.82311015	     89.30200271	     -7.83359967	     34.39350257	     34.83609465	     31.73725440	      0.00000000	      0.00000000	     88.50190606	    -14.54166799	     35.14657520	     43.94943536	     33.46246393	      0.00000000	      0.00000000
      0.01500000	    -26.62018296	     -2.99151674	      3.01529593	      0.14720177	      1.03554559	     -0.23833530	      0.00000000	      0.50000000	      0.00000000	      0.25000000	     62.71124004	     -4.47867124	     -1.36868106	     82.18786798	      1.43444890	     19.42094310	     -5.14973549	      0.00000000	      0.00000000	     84.76472619	     -5.64278296	      0.87093478	     64.19045776	      1.12033484	     -2.52262305	     -2.83751637	      0.00000000	      0.00000000	    -44.51973726	      2.36946129	     -1.70876502	     89.29510328	     -8.05070595	     34.75956410	     34.94401676	     31.73974183	      0.00000000	      0.00000000	     88.54635246	    -14.48557727	     35.48953548	     43.63406310	     33.50553686	      0.00000000	      0.00000000
      0.02000000	    -26.62508137	     -2.97486465	      3.04466746	      0.14717053	      1.03540825	     -0.23839002	      0.00000000	      0.50000000	      0.00000000	      0.25000000	     62.72693689	     -4.52794597	     -1.32309863	     82.24668944	      1.43547553	     19.60368137	     -4.86655132	      0.00000000	      0.00000000	     84.78280219	     -5.59666181	      0.91746616	     64.21735786	      1.12080433	     -2.47930085	     -2.74404962	      0.00000000	      0.00000000	    -44.46794088	      2.34401503	     -1.79784632	     89.29322449	     -8.05552235	     34.92650704	     34.79047828	     32.19170473	      0.00000000	      0.00000000	     88.53483422	    -14.37837656	     35.30441112	     43.45739806	     33.96610903	      0.00000000	      0.00000000
      0.02500000	    -26.65766569	     -2.96910249	      3.05142839	      0.14704858	      1.03550940	     -0.23863152	      0.00000000	      0.50000000	      0.00000000	      0.25000000	     62.77534352	     -4.58137825	     -1.32086329	     82.26697090	      1.43582951	     19.63009771	     -4.86768972	      0.00000000	      0.00000000	     84.81592577	     -5.56137151	      0.91600448	     64.21903140	      1.12083354	     -2.48578311	     -2.83719241	      0.00000000	      0.00000000	    -44.42039018	      2.37006044	     -1.79130869	     89.29651672	     -8.11752935	     35.08914866	     34.72530447	     32.22694876	      0.00000000	      0.00000000	     88.51802949	    -14.31428431	     35.15492465	     43.36467914	     34.15187144	      0.00000000	      0.00000000
      0.03000000	    -26.95519313	     -2.89392359	      2.98564049	      0.14683115	      1.03509816	     -0.23868848	      0.00000000	      0.50000000	      0.00000000	      0.25000000	     63.16656055	     -4.58201913	     -1.16827224	     82.32115495	      1.43677520	     19.33048872	     -5.11498484	      0.00000000	      0.00000000	     85.07898660	     -5.54177621	      0.91070036	     64.13077295	      1.11929314	     -2.38924746	     -2.72095447	      0.00000000	      0.00000000	    -44.36321928	      2.39086046	     -1.64150051	     89.17779001	     -8.45771245	     33.43946945	     36.80311723	     33.20680913	      0.00000000	      0.00000000	     88.03624853	    -14.37741685	     33.44593163	     45.09120114	     34.98405391	      0.00000000	      0.00000000
      0.03500000	    -26.65827808	     -2.97155248	      3.08927536	      0.14703309	      1.03555387	     -0.23877913	      0.00000000	      0.50000000	      0.00000000	      0.25000000	     62.77589103	     -4.63601574	     -1.33838981	     82.29616653	      1.43633907	     19.72013913	     -4.73635776	      0.00000000	      0.00000000	     84.80457967	     -5.50204033	      0.94455224	     64.18489799	      1.12023780	     -2.53785662	     -2.85097071	      0.00000000	      0.00000000	    -44.43030942	      2.41735469	     -1.85633112	     89.30049361	     -7.96181356	     34.67314711	     34.50768367	     33.26792019	      0.00000000	      0.00000000	     88.47575076	    -14.27125016	     34.64252512	     43.22989531	     35.13834004	      0.00000000	      0.00000000
      0.04000000	    -26.65406254	     -3.00713965	      3.08091941	      0.14705221	      1.03554994	     -0.23881579	      0.00000000	      0.50000000	      0.00000000	      0.25000000	     62.76425436	     -4.61389392	     -1.37400261	     82.28281429	      1.43610603	     19.67452160	     -4.77496844	      0.00000000	      0.00000000	     84.81682265	     -5.52604046	      0.95088633	     64.20534561	      1.12059468	     -2.54488057	     -2.84584407	      0.00000000	      0.00000000	    -44.43484957	      2.45545683	     -1.77744646	     89.29722769	     -8.10561051	     34.74090242	     34.53547766	     33.85565001	      0.00000000	      0.00000000	     88.50837131	    -14.29611231	     34.83128748	     43.10508241	     35.73720129	      0.00000000	      0.00000000
      0.04500000	    -26.68788496	     -2.99100428	      3.10022902	      0.14701826	      1.03550875	     -0.23884167	      0.00000000	      0.50000000	      0.00000000	      0.25000000	     62.80857171	     -4.64388524	     -1.35722369	     82.30661593	      1.43652144	     19.72149412	     -4.75132154	      0.00000000	      0.00000000	     84.83605559	     -5.48779553	      0.96867179	     64.17021100	      1.11998146	     -2.55773175	     -2.85223877	      0.00000000	      0.00000000	    -44.39048579	      2.45129353	     -1.83387023	     89.29861152	     -7.82465761	     34.11179284	     34.18711017	     34.32978291	      0.00000000	      0.00000000	     88.47068120	    -14.21764080	     34.48959083	     42.96884924	     36.34360946	      0.00000000	      0.00000000
      0.05000000	    -26.64022931	     -2.98771532	      3.09664749	      0.14703591	      1.03556454	     -0.23883725	      0.00000000	      0.50000000	      0.00000000	      0.25000000	     62.75592518	     -4.64450490	     -1.36605128	     82.30927503	      1.43656785	     19.73234760	     -4.72764928	      0.00000000	      0.00000000	     84.79003277	     -5.49634368	      0.96803886	     64.17801228	      1.12011762	     -2.59946202	     -2.87068592	      0.00000000	      0.00000000	    -44.47905806	      2.42394668	     -1.77543579	     89.28568167	     -8.48981414	     35.28199720	     34.94378142	     34.05926087	      0.00000000	      0.00000000	     88.56733288	    -14.37343412	     35.25981758	     43.07395457	     36.37192243	      0.00000000	      0.00000000
      0.05500000	    -26.66732734	     -2.97811864	      3.06782683	      0.14701718	      1.03552519	     -0.23883161	      0.00000000	      0.50000000	      0.00000000	      0.25000000	     62.80164594	     -4.61544385	     -1.29962428	     82.32312251	      1.43680954	     19.70205881	     -4.76311235	      0.00000000	      0.00000000	     84.80633333	     -5.51609823	      0.97076057	     64.16013365	      1.11980558	     -2.58828187	     -2.80809329	      0.00000000	      0.00000000	    -44.41665514	      2.39942680	     -1.81149063	     89.29898504	     -8.16621431	     34.71122440	     34.32445196	     35.27909222	      0.00000000	      0.00000000	     88.50034636	    -14.30180409	     34.71293340	     42.81584876	     37.43951480	      0.00000000	      0.00000000
